# xmcd
# Track frame offsets:
# 150
# 18417
# 28042
# 41371
# 49956
# 62133
# 74285
# 90389
# 105335
# 116574
# 124292
# 132978
# 144103
# 154156
# 163628
# 176381
# 185716
# 201675
# 210686
# 221701
# 233474
#
# Disc length: 3286 seconds
# Revision: 0
# Processed by: cddbd v1.5.2PL0 Copyright (c) Steve Scherf et al.
# Submitted via: VisiTrax 2.11.3.279 - For more info visit www.synapsa.com
#
DISCID=2d0cd415
DTITLE=Rolling Stones The - Previously Unreleased: A Compilation Of Unrealeas
DTITLE=ed and Live Tracks From 1964: *ReMastered Tracks
DYEAR=1964
DGENRE=R&B
TTITLE0=Stewed And Keefed* (Chess Studio Outtake)
TTITLE1=Goodbye Girl* (Chess Studio Outtake)
TTITLE2=High Heel Sneakers* (Chess Studio Outtake)
TTITLE3=Tell Me Baby* (Chess Studio Outtake)
TTITLE4=Meet Me In The Bottom* (Chess Studio Outtake)
TTITLE5=Mercy Mercy* (Chess Studio Outtake)
TTITLE6=Reelin' And Rockin'* (Chess Studio Outtake)
TTITLE7=Key To The Highway* (Chess Studio Outtake)
TTITLE8=Around And Around* (Live: The Ed Sullivan Show: 25th Oct 1964)
TTITLE9=Time Is On My Side* (Live: The Ed Sullivan Show: 25th Oct 1964)
TTITLE10=High Heel Sneakers* (Live: The Joe Loss Show: BBC: 16th April 1964)
TTITLE11=Little By Little* (Live: The Joe Loss Show: BBC: 16th April 1964)
TTITLE12=I Just Wanna' Make Love To You* (Live: The Joe Loss Show: BBC: 16th Ap
TTITLE12=ril 1964)
TTITLE13=I'm Moving On* (Live: The Joe Loss Show: BBC: 16th April 1964)
TTITLE14=Carol* (Live: The Mike Douglas Show: BBC: 18th June 1964)
TTITLE15=Not Fade Away* (Live: The Mike Douglas Show: BBC: 18th June 1964)
TTITLE16=It's All Over Now* (Live: The Joe Loss Show: BBC: 17th July 1964)
TTITLE17=If You Need Me* (Live: The Joe Loss Show: BBC: 17th July 1964)
TTITLE18=Confessin' The Blues* (Live: The Joe Loss Show: BBC: 17th July 1964)
TTITLE19=Carol* (Live: The Joe Loss Show: BBC: 17th July 1964)
TTITLE20=Mona* (Live: The Joe Loss Show: BBC: 17th July 1964)
EXTD=Compilation and ReMastering: CODA Publishing: 2015\nTracks 1-8: The "Leg
EXTD=endary" Chess Studio Outtakes\nTracks 9-10: Live: The Ed Sullivan Show
EXTD=: 25th Oct 1964\nTracks 11-14: Live: The Joe Loss Show: BBC: 16th Apri
EXTD=l 1964\nTracks 15-16: Live: The Mike Douglas Show: BBC: 18th June 196
EXTD=4\nTracks 17-21: Live: The Joe Loss Show: BBC: 17th July 1964
EXTT0=
EXTT1=
EXTT2=
EXTT3=
EXTT4=
EXTT5=
EXTT6=
EXTT7=
EXTT8=
EXTT9=
EXTT10=
EXTT11=
EXTT12=
EXTT13=
EXTT14=
EXTT15=
EXTT16=
EXTT17=
EXTT18=
EXTT19=
EXTT20=
PLAYORDER=
